<?xml version="1.0" encoding="UTF-8" standalone="no"?>
<!-- Created with Inkscape (http://www.inkscape.org/) -->

<svg
   width="25mm"
   height="25mm"
   viewBox="0 0 25 25"
   version="1.1"
   id="svg5"
   xml:space="preserve"
   inkscape:export-filename="mouse.png"
   inkscape:export-xdpi="96"
   inkscape:export-ydpi="96"
   inkscape:version="1.2.2 (732a01da63, 2022-12-09)"
   sodipodi:docname="key_ctrl.svg"
   xmlns:inkscape="http://www.inkscape.org/namespaces/inkscape"
   xmlns:sodipodi="http://sodipodi.sourceforge.net/DTD/sodipodi-0.dtd"
   xmlns="http://www.w3.org/2000/svg"
   xmlns:svg="http://www.w3.org/2000/svg"><sodipodi:namedview
     id="namedview7"
     pagecolor="#ffffff"
     bordercolor="#666666"
     borderopacity="1.0"
     inkscape:showpageshadow="2"
     inkscape:pageopacity="0.0"
     inkscape:pagecheckerboard="0"
     inkscape:deskcolor="#d1d1d1"
     inkscape:document-units="mm"
     showgrid="false"
     inkscape:zoom="5.6568545"
     inkscape:cx="43.75223"
     inkscape:cy="45.254832"
     inkscape:window-width="1920"
     inkscape:window-height="1001"
     inkscape:window-x="-9"
     inkscape:window-y="-9"
     inkscape:window-maximized="1"
     inkscape:current-layer="layer1" /><defs
     id="defs2" /><g
     inkscape:label="Calque 1"
     inkscape:groupmode="layer"
     id="layer1"><path
       style="fill:#000000;stroke-width:0.0898676"
       d="M 3.1308329,21.360671 C 1.9675411,21.22232 1.292403,20.802917 0.90132459,19.975677 l -0.2124247,-0.449338 0.0011,-7.099539 c 0.00107,-6.9490279 0.00498,-7.1081109 0.1841548,-7.5039419 C 1.1199833,4.3797791 1.4501735,4.0443343 1.9902239,3.7890252 L 2.4395618,3.5766004 H 12.504731 22.5699 l 0.453011,0.2109491 c 0.506774,0.2359849 0.886206,0.6359036 1.135465,1.1967736 0.159039,0.35786 0.165941,0.72241 0.143055,7.5559699 l -0.02405,7.179969 -0.271729,0.439465 c -0.14945,0.241705 -0.437642,0.556072 -0.640425,0.698593 -0.794809,0.558614 -0.526533,0.544226 -10.501029,0.563196 -4.9921439,0.0095 -9.3721596,-0.01788 -9.7333681,-0.06085 z m 19.7001271,-0.8248 c 0.19301,-0.110398 0.476093,-0.356129 0.629073,-0.546069 l 0.278146,-0.345345 V 12.4268 5.2091441 L 23.460234,4.8637991 C 22.850425,4.1061141 23.055256,4.1433646 19.089924,4.0690172 17.148584,4.0326184 12.627436,4.0185915 9.0429301,4.0378464 l -6.5172836,0.035009 -0.422591,0.2476548 c -0.274017,0.160585 -0.5103186,0.396894 -0.6721154,0.672137 L 1.1814157,5.4171301 V 12.4268 19.436471 l 0.2434527,0.414123 c 0.2502199,0.425632 0.5543738,0.67954 0.9619926,0.803069 0.1278398,0.03874 4.7011011,0.07325 10.162804,0.07669 l 9.930368,0.0062 z M 2.6236158,20.297202 c -0.028172,-0.04558 0.1186742,-0.513103 0.3263255,-1.03893 0.3671171,-0.929636 0.3839036,-0.954037 0.6075911,-0.883197 0.1265237,0.04007 4.2647837,0.07285 9.1961336,0.07285 h 8.966091 l 0.350815,0.895883 c 0.192949,0.492736 0.331294,0.92747 0.307434,0.966076 -0.06274,0.101519 -19.6915982,0.08891 -19.7543902,-0.01269 z m -1.037796,-8.162458 c 0,-5.4786609 0.022344,-6.7587529 0.1203126,-6.8927329 0.1136136,-0.155375 0.146236,-0.145183 0.5858911,0.18305 0.3258579,0.243275 0.4478189,0.388634 0.4063997,0.484364 -0.1483513,0.342878 -0.2238738,3.005516 -0.1976025,6.9667129 0.028433,4.287213 0.029848,4.315741 0.2308108,4.655784 0.1112111,0.188178 0.202202,0.358006 0.202202,0.377396 0,0.03404 -1.0069288,0.75885 -1.2356792,0.889475 -0.089438,0.05107 -0.1123345,-1.307192 -0.1123345,-6.664049 z m 21.2133462,6.351228 c -0.269322,-0.1971 -0.508346,-0.377035 -0.531166,-0.399855 -0.02282,-0.02282 0.02412,-0.11399 0.104311,-0.202599 0.419904,-0.463989 0.422258,-0.498428 0.422258,-6.176352 0,-5.2722119 -0.0029,-5.3592459 -0.189951,-5.7259209 l -0.189951,-0.372335 0.302285,-0.250741 c 0.37554,-0.311504 0.470703,-0.315718 0.602397,-0.02668 0.118866,0.260882 0.155066,13.5238529 0.03689,13.5168429 -0.03707,-0.0022 -0.287755,-0.165262 -0.557076,-0.362362 z M 8.0324231,14.62573 c -0.833087,-0.208796 -1.666253,-0.881279 -2.034624,-1.642231 -0.66917,-1.382322 -0.0118,-3.2025969 1.407312,-3.8969059 0.424837,-0.207853 0.627616,-0.249294 1.231421,-0.251662 1.172025,-0.0046 1.170628,-0.0056 1.297905,0.904254 0.05969,0.4267009 0.09351,0.7908489 0.07514,0.8092169 -0.01837,0.01837 -0.1908388,-0.04687 -0.3832698,-0.144981 -1.15289,-0.5877759 -2.486652,0.402201 -2.248948,1.669271 0.07661,0.408373 0.59723,0.987213 1.010626,1.123645 0.374532,0.123608 1.048319,0.05292 1.344322,-0.141023 0.2696388,-0.176676 0.3010688,-0.170349 0.3010688,0.0606 0,0.512896 -0.2075678,1.341479 -0.3559448,1.420889 -0.240456,0.128688 -1.265307,0.18409 -1.645004,0.08893 z m 6.4943289,-2.078894 c 0,-1.172297 0.03033,-2.149078 0.0674,-2.170625 0.03707,-0.02155 0.340374,-0.06759 0.674007,-0.102325 l 0.606606,-0.06315 v 0.284744 0.284745 l 0.266485,-0.224232 c 0.293046,-0.246582 0.955183,-0.403377 1.098446,-0.260114 0.05949,0.05949 0.02048,0.303985 -0.116175,0.728296 -0.191349,0.59412 -0.223609,0.638748 -0.461721,0.638748 -0.151978,0 -0.34563,0.08963 -0.476583,0.220584 -0.212487,0.212487 -0.220584,0.265266 -0.220584,1.437882 0,0.669513 -0.01011,1.220174 -0.02247,1.223691 -0.01236,0.0035 -0.33588,0.03493 -0.718941,0.0698 l -0.696473,0.0634 z m -2.201756,1.954345 c -0.395575,-0.176568 -0.766978,-0.61267 -0.858799,-1.008404 -0.04429,-0.190869 -0.08149,-0.680669 -0.08267,-1.088443 l -0.0021,-0.741408 h -0.314536 c -0.361732,0 -0.3674,-0.02447 -0.169261,-0.730634 0.113134,-0.403209 0.187692,-0.523806 0.337003,-0.545101 0.15434,-0.02201 0.20049,-0.104932 0.236662,-0.4252089 0.04485,-0.397143 0.04606,-0.398325 0.665199,-0.65154 0.341146,-0.139522 0.634339,-0.253675 0.65154,-0.253675 0.0172,0 0.03127,0.303303 0.03127,0.674007 V 10.40478 h 0.404404 0.404404 v 0.629073 0.629073 h -0.404404 -0.404404 v 0.707937 c 0,0.83227 0.09225,0.959137 0.687855,0.945996 0.214805,-0.0047 0.390556,0.02739 0.390556,0.0714 0,0.04401 -0.06558,0.34108 -0.145727,0.660157 l -0.145727,0.580142 -0.505813,-0.0035 c -0.278198,-0.0019 -0.627135,-0.05767 -0.775416,-0.123857 z m 5.706591,-2.735992 V 8.9018231 l 0.684304,-0.06201 c 0.376367,-0.03411 0.70349,-0.04282 0.726938,-0.01938 0.02345,0.02345 0.01316,1.3152729 -0.02286,2.8707219 l -0.06549,2.82809 -0.324443,0.05367 c -0.178444,0.02952 -0.476094,0.05411 -0.661446,0.05465 l -0.337004,9.89e-4 z M 2.6642308,5.0114741 C 2.3305682,4.7182771 2.2834072,4.6403861 2.3946281,4.5661941 2.5592422,4.4563851 22.435099,4.4369271 22.435099,4.5465741 c 0,0.04018 -0.119455,0.1875 -0.265455,0.327377 -0.253318,0.242694 -0.28311,0.249466 -0.65154,0.148104 -0.287729,-0.07916 -2.58393,-0.0996 -9.013373,-0.08024 l -8.6272878,0.02598 -0.3847047,0.202202 c -0.2115874,0.111211 -0.3935693,0.200995 -0.4044041,0.19952 -0.010835,-0.0015 -0.2016813,-0.162593 -0.4241036,-0.35804 z"
       id="path16048" /><path
       style="fill:#ffffff;fill-opacity:1;fill-rule:evenodd;stroke:none;stroke-width:0.334066"
       d="M 13.081475,78.054443 8.8388344,77.958519 7.890565,77.433298 C 6.857924,76.861348 6.1298257,76.062922 5.1454064,74.422985 L 4.5087144,73.362325 4.50826,46.987876 4.5078055,20.613426 5.1497816,19.518061 c 0.9051537,-1.54441 1.6764233,-2.336468 3.1995509,-3.285792 L 9.6737593,15.40679 42.13676,15.396364 c 38.662393,-0.01242 42.980374,0.103466 44.651346,1.19833 0.245467,0.160836 1.004242,0.947599 1.686165,1.748362 l 1.239861,1.455933 1.9e-5,27.14502 1.8e-5,27.14502 -0.950649,1.152516 c -0.937489,1.13656 -2.133146,2.131067 -3.239019,2.694101 -0.517763,0.263609 -3.433901,0.284929 -34.383065,0.25138 -18.599526,-0.02016 -35.726509,-0.07982 -38.059961,-0.132583 z m 71.108422,-1.178814 c 0.223985,-0.06048 0.397748,-0.245367 0.397748,-0.423221 0,-0.350246 -0.90378,-2.984049 -1.818603,-5.299791 l -0.593595,-1.502602 -34.281822,-0.0976 C 29.038624,69.498729 13.44366,69.392851 13.23815,69.317123 c -0.288337,-0.106246 -0.456697,-0.03211 -0.737341,0.324666 -0.77222,0.981721 -2.9803423,6.987255 -2.6455087,7.195117 0.4218147,0.26186 73.3674497,0.29986 74.3345967,0.03872 z m 4.34139,-9.891661 C 88.686785,62.384348 88.518577,24.88839 88.328461,21.771785 88.225,20.075707 88.165934,19.81858 87.814465,19.534263 87.288386,19.108698 86.961971,19.219708 85.673243,20.262467 l -1.083459,0.876667 0.53487,1.059572 c 0.335492,0.664605 0.59664,1.535048 0.70058,2.335131 0.207993,1.60105 0.219723,36.541517 0.01305,38.840605 -0.201676,2.243367 -0.433128,3.016398 -1.165648,3.893168 -0.338421,0.405062 -0.61531,0.831909 -0.61531,0.948546 0,0.180952 0.995415,0.966894 3.447145,2.72173 0.291682,0.208772 0.60988,0.355903 0.707107,0.326956 0.106169,-0.03161 0.23387,-1.741461 0.31972,-4.280874 z M 8.2950514,69.907854 c 0.9966693,-0.684621 2.0651836,-1.460228 2.3744756,-1.723572 l 0.56235,-0.478811 -0.6338,-1.203598 C 10.084609,65.526789 9.9310661,64.989787 9.7893552,63.673446 9.6891067,62.742248 9.6058327,55.2945 9.594286,46.227104 9.5744921,30.683259 9.7167504,25.058114 10.184842,22.875479 10.370401,22.010248 10.358963,21.957556 9.8733188,21.440352 9.1519527,20.672106 7.3186111,19.357047 6.9689546,19.357047 c -0.6299531,0 -0.7396091,0.476618 -0.9057453,3.936808 -0.1915801,3.990118 -0.087194,46.877087 0.1155185,47.461014 0.075944,0.218761 0.1754565,0.397748 0.2211388,0.397748 0.045682,0 0.8985156,-0.560144 1.8951848,-1.244763 z M 34.623302,55.41395 c 1.855273,-0.212551 2.156403,-0.348903 2.479774,-1.122836 0.722917,-1.730188 1.108441,-5.41236 0.566673,-5.41236 -0.136869,0 -0.66429,0.215537 -1.172049,0.478971 -0.761939,0.39531 -1.212407,0.491621 -2.578935,0.551388 -1.510125,0.06605 -1.739353,0.03151 -2.606473,-0.392733 -1.074203,-0.525558 -2.353,-1.800205 -2.96443,-2.954808 -0.32784,-0.619084 -0.40962,-1.045066 -0.403587,-2.102235 0.0097,-1.700815 0.592414,-2.99666 1.86,-4.136329 1.854443,-1.667303 4.159699,-1.95585 6.67195,-0.835123 0.713715,0.318391 1.342782,0.533775 1.397926,0.478632 0.171871,-0.171871 -0.327133,-4.211388 -0.635134,-5.14151 -0.439138,-1.326138 -0.908744,-1.501983 -4.012053,-1.502327 -3.980025,-3.54e-4 -5.681021,0.644466 -8.141859,3.086862 -2.318827,2.301447 -3.431905,4.970446 -3.427863,8.219518 0.0024,1.909137 0.274609,3.125995 1.053137,4.70741 1.037709,2.107885 3.719164,4.511905 6.182337,5.542684 1.664847,0.6967 3.126644,0.833119 5.730586,0.534796 z m 23.661844,-0.172333 c 0.944132,-0.09662 1.79929,-0.175679 1.900349,-0.175679 0.120758,0 0.188858,-1.257397 0.19866,-3.668116 0.01935,-4.756948 0.117848,-5.536699 0.78966,-6.251022 0.580819,-0.617569 1.433611,-1.041016 2.096538,-1.041016 0.592895,0 0.899415,-0.489589 1.523117,-2.432794 0.592691,-1.846588 0.670512,-2.77704 0.245892,-2.939982 -0.883448,-0.339012 -2.893783,0.219756 -4.114364,1.143581 l -0.909313,0.688232 v -1.031996 -1.031996 l -0.928077,0.08748 c -0.510443,0.04812 -1.600779,0.17565 -2.422969,0.28341 -1.369029,0.179432 -1.505218,0.233135 -1.617563,0.637869 -0.06747,0.243068 -0.130603,3.964747 -0.140293,8.270398 l -0.01762,7.828458 0.83969,-0.09558 c 0.461829,-0.05257 1.612161,-0.174629 2.556295,-0.271253 z m -6.22739,-2.135416 c 0.307711,-1.27231 0.520377,-2.415177 0.472591,-2.539703 -0.05676,-0.147911 -0.581533,-0.25505 -1.513518,-0.309002 -2.220856,-0.128563 -2.488978,-0.567201 -2.490642,-4.074586 l -9.86e-4,-2.077126 h 1.502602 1.502601 V 41.63091 39.156036 h -1.502601 -1.502602 v -2.474873 c 0,-1.91833 -0.05191,-2.474874 -0.230812,-2.474874 -0.269937,0 -3.093619,1.122553 -4.046558,1.608709 -0.671651,0.342649 -1.022641,1.064692 -1.024945,2.108461 -0.0012,0.590415 -0.42128,1.166632 -0.946354,1.298418 -0.501367,0.125835 -0.986409,1.154618 -1.444584,3.063987 -0.408614,1.70283 -0.346194,1.81992 0.970191,1.81992 h 1.066208 l 0.0029,1.458407 c 0.0091,4.59038 0.496882,6.642748 1.916295,8.062161 1.297387,1.297387 2.606264,1.723228 5.445196,1.771583 l 1.265563,0.02156 z m 20.420686,1.986595 0.707107,-0.120539 0.117922,-3.532887 c 0.06486,-1.943089 0.144407,-6.834192 0.176777,-10.86912 l 0.05885,-7.336233 -0.972272,0.01873 c -0.534749,0.01031 -1.747879,0.07739 -2.695844,0.149082 l -1.723573,0.130348 v 10.96778 10.967783 l 1.811961,-0.127203 c 0.996579,-0.06996 2.130159,-0.181446 2.519068,-0.247742 z m -59.215075,-35.468314 1.455191,-0.793225 31.981666,-0.01513 c 17.589916,-0.0083 32.495078,0.03528 33.122582,0.0969 0.627504,0.06161 1.521869,0.1954 1.987477,0.297303 0.783936,0.171573 0.896735,0.150507 1.524846,-0.284773 0.373055,-0.258529 0.888163,-0.764389 1.14468,-1.124135 L 84.946205,17.14734 83.13174,17.036419 c -2.472474,-0.151146 -59.438456,-0.182421 -67.522724,-0.03707 -3.568438,0.06416 -6.5799448,0.173434 -6.6922369,0.242834 -0.3957491,0.244587 0.046961,0.898138 1.3773079,2.033252 0.736306,0.628251 1.378192,1.142274 1.426413,1.142274 0.04822,0 0.742512,-0.356951 1.542867,-0.793225 z"
       id="path16086"
       transform="scale(0.26458333)" /></g></svg>
