<?xml version="1.0" encoding="UTF-8" standalone="no"?>
<!-- Created with Inkscape (http://www.inkscape.org/) -->

<svg
   width="25mm"
   height="25mm"
   viewBox="0 0 25 25"
   version="1.1"
   id="svg5"
   xml:space="preserve"
   inkscape:export-filename="mouse.png"
   inkscape:export-xdpi="96"
   inkscape:export-ydpi="96"
   inkscape:version="1.2.2 (732a01da63, 2022-12-09)"
   sodipodi:docname="key_s.svg"
   xmlns:inkscape="http://www.inkscape.org/namespaces/inkscape"
   xmlns:sodipodi="http://sodipodi.sourceforge.net/DTD/sodipodi-0.dtd"
   xmlns="http://www.w3.org/2000/svg"
   xmlns:svg="http://www.w3.org/2000/svg"><sodipodi:namedview
     id="namedview7"
     pagecolor="#ffffff"
     bordercolor="#666666"
     borderopacity="1.0"
     inkscape:showpageshadow="2"
     inkscape:pageopacity="0.0"
     inkscape:pagecheckerboard="0"
     inkscape:deskcolor="#d1d1d1"
     inkscape:document-units="mm"
     showgrid="false"
     inkscape:zoom="5.6568545"
     inkscape:cx="43.75223"
     inkscape:cy="45.254832"
     inkscape:window-width="1920"
     inkscape:window-height="1001"
     inkscape:window-x="-9"
     inkscape:window-y="-9"
     inkscape:window-maximized="1"
     inkscape:current-layer="layer1" /><defs
     id="defs2" /><g
     inkscape:label="Calque 1"
     inkscape:groupmode="layer"
     id="layer1"><g
       aria-label="S"
       id="text16052"
       style="font-size:10.5833px;line-height:1.25;stroke-width:0.264583"><path
         d="m 14.886534,13.727662 q 0,1.005413 -0.730247,1.566328 -0.730248,0.560915 -1.968494,0.560915 -0.634998,0 -1.174746,-0.09525 -0.539748,-0.09525 -0.899581,-0.264582 v -0.910164 q 0.380999,0.169333 0.941914,0.306916 0.571498,0.137583 1.174746,0.137583 0.836081,0 1.269996,-0.328083 0.433916,-0.328082 0.433916,-0.888997 0,-0.370415 -0.15875,-0.624414 -0.158749,-0.254 -0.550332,-0.465666 -0.391582,-0.211666 -1.068913,-0.465665 -0.973663,-0.349249 -1.460495,-0.857247 -0.486832,-0.507998 -0.486832,-1.386412 0,-0.5926651 0.306916,-1.0265804 0.306915,-0.4339153 0.846664,-0.6667479 0.539748,-0.2328326 1.259412,-0.2328326 0.613832,0 1.132413,0.1164163 0.518582,0.1164163 0.952497,0.3069157 L 14.410286,9.3250092 Q 14.018704,9.1556764 13.553039,9.0392601 13.087374,8.9228438 12.600542,8.9228438 q -0.709081,0 -1.068913,0.3069157 -0.359833,0.2963324 -0.359833,0.7937475 0,0.380999 0.15875,0.634998 0.158749,0.253999 0.518581,0.465665 0.359833,0.201083 0.973664,0.423332 0.666748,0.243416 1.12183,0.529165 0.465665,0.275166 0.698498,0.666748 0.243415,0.391582 0.243415,0.984247 z"
         id="path16061" /></g><path
       style="fill:#000000;stroke-width:0.0759835"
       d="M 5.8021816,21.360671 C 4.9705691,21.22232 4.4879272,20.802917 4.2083536,19.975677 L 4.0564957,19.526339 4.0572821,12.4268 C 4.058047,5.4777721 4.0608421,5.3186891 4.1889304,4.9228581 4.364668,4.3797791 4.600714,4.0443343 4.9867845,3.7890252 L 5.3080066,3.5766004 h 7.1953754 7.195375 l 0.323848,0.2109491 c 0.362282,0.2359849 0.63353,0.6359036 0.81172,1.1967736 0.113694,0.35786 0.118628,0.72241 0.102267,7.5559699 l -0.01719,7.179969 -0.194253,0.439465 c -0.106839,0.241705 -0.312861,0.556072 -0.457826,0.698593 -0.568192,0.558614 -0.376408,0.544226 -7.506963,0.563196 -3.5687772,0.0095 -6.6999572,-0.01788 -6.9581775,-0.06085 z m 14.0832024,-0.8248 c 0.137978,-0.110398 0.340348,-0.356129 0.44971,-0.546069 l 0.198841,-0.345345 V 12.4268 5.2091441 L 20.335238,4.8637991 C 19.899299,4.1061141 20.045728,4.1433646 17.210996,4.0690172 15.823174,4.0326184 12.591101,4.0185915 10.028614,4.0378464 L 5.3695468,4.0728554 5.0674454,4.3205102 c -0.1958889,0.160585 -0.3648159,0.396894 -0.480481,0.672137 L 4.4085848,5.4171301 V 12.4268 19.436471 l 0.1740391,0.414123 c 0.1788769,0.425632 0.3963101,0.67954 0.6877081,0.803069 0.09139,0.03874 3.3607171,0.07325 7.265172,0.07669 l 7.099009,0.0062 z M 5.4395829,20.297202 c -0.020139,-0.04558 0.084838,-0.513103 0.2332832,-1.03893 0.2624442,-0.929636 0.2744445,-0.954037 0.4343539,-0.883197 0.090449,0.04007 3.0488032,0.07285 6.57412,0.07285 h 6.409668 l 0.25079,0.895883 c 0.137935,0.492736 0.236835,0.92747 0.219778,0.966076 -0.04485,0.101519 -14.0771044,0.08891 -14.1219931,-0.01269 z M 4.6976846,12.134744 c 0,-5.4786609 0.015973,-6.7587529 0.086009,-6.8927329 0.08122,-0.155375 0.104541,-0.145183 0.418841,0.18305 0.2329489,0.243275 0.3201363,0.388634 0.2905265,0.484364 -0.1060531,0.342878 -0.1600426,3.005516 -0.1412618,6.9667129 0.020326,4.287213 0.021338,4.315741 0.1650018,4.655784 0.079502,0.188178 0.1445499,0.358006 0.1445499,0.377396 0,0.03404 -0.719832,0.75885 -0.8833608,0.889475 -0.063937,0.05107 -0.080306,-1.307192 -0.080306,-6.664049 z m 15.1649704,6.351228 c -0.192533,-0.1971 -0.363406,-0.377035 -0.37972,-0.399855 -0.01631,-0.02282 0.01724,-0.11399 0.07457,-0.202599 0.300181,-0.463989 0.301863,-0.498428 0.301863,-6.176352 0,-5.2722119 -0.0021,-5.3592459 -0.135792,-5.7259209 l -0.135791,-0.372335 0.216097,-0.250741 c 0.268465,-0.311504 0.336495,-0.315718 0.43064,-0.02668 0.08498,0.260882 0.110854,13.5238529 0.02637,13.5168429 -0.0265,-0.0022 -0.20571,-0.165262 -0.398241,-0.362362 z M 5.4686177,5.0114741 C 5.2300894,4.7182771 5.196375,4.6403861 5.2758845,4.5661941 5.3935636,4.4563851 19.602391,4.4369271 19.602391,4.5465741 c 0,0.04018 -0.0854,0.1875 -0.189768,0.327377 -0.181092,0.242694 -0.20239,0.249466 -0.465772,0.148104 -0.205692,-0.07916 -1.847197,-0.0996 -6.443469,-0.08024 l -6.1674645,0.02598 -0.2750172,0.202202 c -0.1512594,0.111211 -0.2813544,0.200995 -0.2890999,0.19952 -0.00775,-0.0015 -0.1441777,-0.162593 -0.3031827,-0.35804 z"
       id="path16048"
       sodipodi:nodetypes="cscccscccssscssccccscccssscsscccssccccssscssccsssssssssssssccssssscssssscsccc" /><path
       style="fill:#ffffff;fill-opacity:1;fill-rule:evenodd;stroke:none;stroke-width:0.334066"
       d="m 22.892581,78.054921 c -2.936359,-0.0915 -3.123073,-0.118515 -3.673643,-0.531479 -0.697731,-0.523346 -1.435757,-1.6504 -2.055718,-3.139325 L 16.705397,73.284589 V 46.887428 20.490266 l 0.839689,-1.660014 c 0.651845,-1.288656 1.058824,-1.849402 1.819248,-2.506606 l 0.979558,-0.846592 17.670383,-0.114195 c 17.69557,-0.114358 32.501353,0.08244 35.168252,0.467447 1.915622,0.276551 2.341816,0.563891 3.395587,2.289304 l 0.917692,1.502602 0.0104,27.33351 0.01038,27.333512 -0.859596,1.316771 c -0.472778,0.724224 -1.216805,1.609474 -1.653392,1.967224 l -0.793793,0.650455 -24.111811,-0.03618 C 36.836496,78.167604 24.594066,78.107944 22.89259,78.054922 Z m 50.821396,-1.180792 c 0.449818,-0.172612 0.296217,-0.959776 -1.244241,-6.376366 L 72.208087,69.577747 47.682916,69.51154 c -13.488844,-0.03641 -24.68152,-0.0997 -24.872615,-0.140641 -0.286995,-0.06149 -0.415864,0.1152 -0.740699,1.015546 -0.562011,1.557732 -1.7119,6.245142 -1.56749,6.389726 0.322019,0.322411 52.377224,0.418238 53.211865,0.09796 z m 3.060232,-28.172152 c -1.1e-5,-12.007556 -0.05174,-23.449291 -0.114961,-25.426077 -0.103673,-3.241771 -0.147651,-3.618057 -0.448561,-3.837926 -0.409938,-0.299535 -0.707951,-0.1231 -1.648944,0.976237 l -0.638488,0.745929 0.404202,1.087191 c 0.37136,0.998861 0.418022,1.532431 0.574312,6.567269 0.201524,6.492032 0.04264,34.26177 -0.206556,36.101735 -0.0952,0.702934 -0.373989,1.673529 -0.620319,2.159638 -0.246071,0.4856 -0.447404,1.030859 -0.447404,1.211684 0,0.180827 0.651002,0.959079 1.446668,1.729451 1.400369,1.355847 1.450723,1.38653 1.573369,0.958732 0.06969,-0.243068 0.126693,-10.266306 0.126682,-22.273863 z M 19.822801,69.529061 c 0.910562,-0.892956 1.655567,-1.714511 1.655567,-1.825677 0,-0.111168 -0.212651,-0.713022 -0.472556,-1.337454 L 20.533256,65.230598 20.366903,54.182055 c -0.168533,-11.193327 0.05683,-29.273342 0.388918,-31.201086 0.184298,-1.069842 0.03136,-1.42243 -1.173786,-2.706072 -0.901523,-0.960242 -1.331166,-1.127568 -1.562422,-0.608491 -0.24842,0.557602 -0.438994,20.514005 -0.338893,35.48792 0.09185,13.739562 0.146891,15.998291 0.389852,15.998291 0.05316,0 0.841667,-0.730601 1.752229,-1.623556 z m 29.16538,-9.780084 c 2.796865,-0.475142 5.228729,-1.974373 6.377487,-3.931688 0.722179,-1.230486 0.987864,-2.56497 0.88868,-4.463661 -0.202864,-3.883411 -1.888435,-5.488411 -8.524642,-8.117151 -4.311061,-1.7077 -5.549024,-3.023102 -5.356041,-5.69108 0.255338,-3.530014 4.700965,-4.715619 10.467378,-2.791548 0.866692,0.289189 1.633913,0.463277 1.704938,0.386866 0.245273,-0.263877 1.064438,-2.763887 0.978776,-2.987122 -0.04726,-0.12315 -0.732959,-0.428308 -1.523784,-0.678129 -5.685638,-1.796092 -11.143251,-1.097495 -13.755542,1.760766 -1.250673,1.368438 -1.676055,2.55069 -1.68474,4.682369 -0.01071,2.628535 0.611761,4.121453 2.399799,5.75562 1.169563,1.068915 2.352535,1.712193 5.327722,2.897115 5.157705,2.054149 6.203964,2.994806 6.203964,5.577789 0,1.992993 -0.750128,3.058463 -2.827658,4.016366 -0.79738,0.367653 -1.122562,0.402377 -3.702579,0.395375 -2.944601,-0.008 -4.304951,-0.241825 -6.697735,-1.151281 -0.497015,-0.188907 -0.963325,-0.343507 -1.036245,-0.343556 -0.07292,-4.8e-5 -0.132583,0.799465 -0.132583,1.776699 v 1.776786 l 0.619641,0.258904 c 2.381048,0.994865 7.158415,1.399705 10.273164,0.870561 z M 22.968691,19.624389 24.080427,18.83107 46.95361,18.82597 c 15.784698,-0.0035 23.229275,0.0549 24.02223,0.188551 1.840549,0.310226 1.7773,0.326118 2.506186,-0.629724 0.370708,-0.486135 0.674414,-0.97517 0.674903,-1.086744 5.31e-4,-0.136225 -0.768504,-0.243824 -2.3414,-0.327564 -3.128199,-0.166545 -51.400763,-0.01384 -51.795569,0.163853 -0.170148,0.07658 -0.309359,0.277906 -0.309359,0.447394 0,0.26809 1.877229,2.835993 2.073212,2.835993 0.04023,0 0.573423,-0.356993 1.184878,-0.793318 z"
       id="path16071"
       transform="scale(0.26458333)" /></g></svg>
