<?xml version="1.0" encoding="UTF-8" standalone="no"?>
<!-- Created with Inkscape (http://www.inkscape.org/) -->

<svg
   width="25mm"
   height="25mm"
   viewBox="0 0 25 25"
   version="1.1"
   id="svg5"
   xml:space="preserve"
   inkscape:export-filename="mouse.png"
   inkscape:export-xdpi="96"
   inkscape:export-ydpi="96"
   inkscape:version="1.2.2 (732a01da63, 2022-12-09)"
   sodipodi:docname="pointer.svg"
   xmlns:inkscape="http://www.inkscape.org/namespaces/inkscape"
   xmlns:sodipodi="http://sodipodi.sourceforge.net/DTD/sodipodi-0.dtd"
   xmlns="http://www.w3.org/2000/svg"
   xmlns:svg="http://www.w3.org/2000/svg"><sodipodi:namedview
     id="namedview7"
     pagecolor="#ffffff"
     bordercolor="#666666"
     borderopacity="1.0"
     inkscape:showpageshadow="2"
     inkscape:pageopacity="0.0"
     inkscape:pagecheckerboard="0"
     inkscape:deskcolor="#d1d1d1"
     inkscape:document-units="mm"
     showgrid="false"
     inkscape:zoom="5.6568545"
     inkscape:cx="13.435028"
     inkscape:cy="56.656928"
     inkscape:window-width="1920"
     inkscape:window-height="1001"
     inkscape:window-x="-9"
     inkscape:window-y="-9"
     inkscape:window-maximized="1"
     inkscape:current-layer="layer1" /><defs
     id="defs2" /><g
     inkscape:label="Calque 1"
     inkscape:groupmode="layer"
     id="layer1"><path
       style="display:inline;fill:#000000;stroke-width:0.0151476"
       d="m 20.475208,22.377609 c -0.136335,-0.03718 -0.231065,-0.07852 -0.338188,-0.147598 -0.05604,-0.03614 -0.982337,-0.95097 -2.661728,-2.628783 l -2.575784,-2.573361 -1.286603,2.178098 c -1.389857,2.352896 -1.3627,2.31067 -1.550399,2.410712 -0.353926,0.188641 -0.787809,0.07873 -1.000072,-0.253338 C 11.037768,21.32475 9.7110864,18.000849 8.1142531,13.97689 4.5469672,4.9874687 4.8805585,5.8352577 4.8623334,5.7124642 4.8093712,5.3556279 5.0620302,4.9818196 5.4190299,4.888833 5.5344931,4.858759 5.7020348,4.859231 5.805381,4.889923 5.8504,4.903292 6.1532641,5.019835 6.4784113,5.1489066 c 0.3251472,0.1290716 0.7684035,0.3049126 0.9850141,0.3907576 0.7725572,0.3061727 1.5224792,0.6037394 3.1506996,1.2501883 2.158709,0.8570676 2.406671,0.9555045 3.794472,1.5063409 1.916351,0.7606247 2.333271,0.9260529 2.787157,1.1059024 3.001656,1.1893892 4.051022,1.6085522 4.124406,1.6474662 0.106586,0.05652 0.250272,0.206144 0.304597,0.31718 0.146227,0.298876 0.08591,0.645546 -0.152856,0.878511 -0.0468,0.04566 -0.23185,0.164908 -0.519544,0.334792 -1.067876,0.630582 -3.828468,2.259048 -3.866685,2.280949 l -0.04192,0.02402 2.565778,2.567883 c 1.411177,1.412336 2.587809,2.600775 2.614735,2.640975 0.237786,0.355014 0.262405,0.796699 0.06589,1.182115 -0.06733,0.132048 -0.08826,0.156113 -0.458028,0.526523 -0.42233,0.423069 -0.496669,0.480032 -0.724082,0.554831 -0.162931,0.05359 -0.474091,0.06356 -0.632838,0.02027 z m 0.428406,-0.751741 c 0.0762,-0.0315 0.692917,-0.643919 0.731624,-0.726528 0.03529,-0.07532 0.03816,-0.228913 0.0057,-0.307225 -0.01658,-0.04004 -0.773218,-0.807153 -2.617894,-2.654129 -2.804166,-2.807665 -2.655483,-2.650317 -2.71299,-2.871098 -0.07506,-0.288187 0.04777,-0.621254 0.291443,-0.790288 0.04773,-0.03311 0.853621,-0.512199 1.790879,-1.064651 2.303655,-1.357852 2.520099,-1.485894 2.534633,-1.499421 0.0069,-0.0064 -0.211218,-0.100667 -0.484723,-0.20942 C 19.11779,10.976439 16.609091,9.9807475 15.347748,9.4810939 15.126971,9.3936383 14.728211,9.2354793 14.461613,9.1296296 14.195016,9.02378 13.601987,8.7885588 13.143773,8.606916 12.685558,8.4252733 11.993692,8.1505908 11.606292,7.9965104 11.01174,7.7600395 9.4163842,7.1271002 6.5697174,5.9983065 6.2531327,5.8727707 5.9123118,5.7371511 5.8123377,5.6969297 5.7123636,5.6567083 5.6288134,5.6288781 5.6266705,5.6350847 c -0.00214,0.00621 0.3476469,0.8972716 0.7773107,1.9801442 0.4296637,1.0828727 1.7938605,4.5216081 3.0315487,7.6416331 1.2376881,3.120026 2.2545901,5.677176 2.2597821,5.682556 0.0052,0.0054 0.588835,-0.972088 1.296985,-2.172154 1.419369,-2.405334 1.35382,-2.304669 1.570117,-2.411258 0.222179,-0.109488 0.450478,-0.109153 0.6793,10e-4 0.111218,0.05354 0.168234,0.109261 2.71142,2.650084 1.703463,1.70188 2.616063,2.603225 2.650828,2.618137 0.06933,0.02974 0.228441,0.03008 0.299652,6.51e-4 z m -3.988091,-9.858742 c -0.03332,-0.01138 -0.36392,-0.141477 -0.734658,-0.289104 C 15.257243,11.110236 14.654496,10.87075 12.858851,10.158108 12.010657,9.8214828 11.297649,9.5362213 11.27439,9.5241933 11.22022,9.4961833 11.138882,9.4036263 11.1121,9.3395282 11.08459,9.2736812 11.08557,9.1242896 11.114,9.0563364 11.17338,8.914217 11.301011,8.8284962 11.454853,8.8274063 c 0.09374,-6.635e-4 0.143147,0.017038 1.030036,0.3690275 0.512368,0.2033488 1.786381,0.7089187 2.831141,1.1234892 1.044759,0.41457 1.91726,0.766883 1.938891,0.782919 0.05861,0.04345 0.119296,0.138249 0.140453,0.219402 0.06999,0.268449 -0.217068,0.534605 -0.479814,0.444882 z M 9.8415975,8.9569328 C 9.7627679,8.9360894 8.57152,8.4573245 8.520428,8.4259524 8.4498939,8.3826418 8.3840299,8.2835868 8.365084,8.1923256 8.3166934,7.9592285 8.4921654,7.7436558 8.7302927,7.7436558 c 0.095779,0 0.080172,-0.00553 0.8763514,0.310498 0.5061569,0.2009089 0.5377849,0.2155813 0.5929799,0.2750841 0.07125,0.076812 0.09527,0.1407452 0.09586,0.2551094 6.12e-4,0.1194696 -0.02483,0.1856169 -0.101605,0.2641407 -0.08985,0.091897 -0.2400235,0.1381268 -0.3522815,0.1084448 z M 3.0273023,8.7498123 C 2.9333218,8.7198744 2.8195714,8.6089144 2.7937605,8.5219995 2.7667873,8.4311706 2.7713346,8.3063504 2.8041814,8.2359526 2.8221192,8.1975082 2.9562571,8.0526354 3.1711779,7.8395858 3.4957556,7.5178343 3.5136279,7.5027379 3.5990699,7.4781546 3.828021,7.4122809 4.0523264,7.5662763 4.0738954,7.8041432 4.0888078,7.9685985 4.0699952,7.9971317 3.7010353,8.369668 3.5209322,8.5515168 3.3485182,8.7132878 3.3178928,8.7291593 3.239654,8.7697062 3.1170966,8.7784167 3.0273023,8.7498123 Z M 2.09568,6.147567 C 1.9604258,6.0986206 1.8510711,5.9413487 1.852055,5.7971901 1.8530635,5.6494105 1.921482,5.5348505 2.0518821,5.4625993 l 0.079591,-0.044099 h 0.484723 c 0.4762838,0 0.485964,6.12e-4 0.5560083,0.035111 0.1963052,0.096689 0.2727937,0.3282012 0.1705175,0.5161162 C 3.3184621,6.0143 3.2776226,6.0667788 3.2519673,6.0863472 3.1473759,6.1661229 3.1296431,6.168392 2.620469,6.1671537 2.2888976,6.1663479 2.1313249,6.1604662 2.09568,6.147567 Z M 3.5477725,4.0918489 C 3.4479045,4.0466258 2.8605815,3.4615338 2.8115547,3.3584276 2.7239813,3.1742565 2.797515,2.9524458 2.978817,2.8538886 c 0.066987,-0.036414 0.2706903,-0.034735 0.3417416,0.00282 0.06931,0.036632 0.6857027,0.6532151 0.7190572,0.7192796 0.036427,0.07215 0.046364,0.1994343 0.022305,0.285707 -0.025926,0.092969 -0.1458116,0.2167166 -0.2356753,0.2432676 -0.091876,0.027146 -0.2009097,0.022012 -0.2784731,-0.013111 z m 4.0748067,-0.00906 C 7.4339778,3.9859588 7.3595089,3.7654859 7.4537291,3.5828906 7.4701441,3.551079 7.6358186,3.3744892 7.8218947,3.1904691 8.122888,2.8928014 8.1681247,2.8537362 8.2319099,2.8363907 8.4055295,2.7891773 8.5744551,2.8532253 8.6622,2.9995348 8.7248279,3.1039632 8.7371995,3.1908759 8.7052485,3.3019571 8.6815274,3.384426 8.6636984,3.4054002 8.345226,3.7254905 8.1609399,3.9107128 7.9859829,4.0739781 7.956433,4.0883023 c -0.02955,0.014324 -0.098034,0.028556 -0.1521868,0.031625 -0.0847,0.0048 -0.1100877,-3.877e-4 -0.181667,-0.037138 z M 5.6608618,3.4284063 C 5.5544415,3.4005525 5.4579208,3.3210305 5.4012616,3.2145255 5.3754205,3.165951 5.3730575,3.1202617 5.3730575,2.6692121 c 0,-0.4564851 0.00213,-0.4965979 0.029337,-0.5514238 0.069713,-0.1405046 0.1891889,-0.2135296 0.3493528,-0.2135296 0.088602,0 0.1177771,0.0069 0.1774709,0.041994 0.080687,0.047431 0.1421334,0.1203388 0.1720333,0.2041239 0.029075,0.081473 0.029075,0.9561982 0,1.0376717 -0.06087,0.1705699 -0.2703038,0.2848754 -0.4403897,0.240358 z"
       id="path558"
       inkscape:label="pointer" /><path
       style="display:inline;fill:#ffffff;fill-opacity:1;fill-rule:evenodd;stroke-width:0.23622"
       d="m 77.999997,81.694296 c -0.1375,-0.05629 -4.66866,-4.522416 -10.069245,-9.924715 -7.483286,-7.485665 -9.951456,-9.882341 -10.375,-10.074479 -0.709007,-0.321636 -1.759374,-0.331057 -2.430754,-0.0218 -0.858209,0.395315 -1.060004,0.646224 -2.524717,3.139196 -0.343341,0.584375 -1.273343,2.159375 -2.066671,3.5 -0.793327,1.340625 -2.487215,4.209375 -3.764195,6.375 -1.27698,2.165625 -2.369688,4.017608 -2.428242,4.115518 -0.07283,0.121779 -0.612414,-1.102418 -1.707974,-3.875 -0.880831,-2.229159 -1.731827,-4.362393 -1.891101,-4.740518 -0.159275,-0.378125 -0.821857,-2.0375 -1.472407,-3.6875 -0.65055,-1.65 -1.942296,-4.9125 -2.870549,-7.25 -2.287751,-5.760951 -3.978005,-10.026313 -6.414696,-16.187499 -1.128384,-2.853125 -2.158618,-5.440625 -2.289408,-5.75 -0.130791,-0.309375 -0.547734,-1.35 -0.926541,-2.3125 -1.710839,-4.347027 -4.865567,-12.307079 -5.095045,-12.855886 -0.13934,-0.333238 -0.233439,-0.625793 -0.20911,-0.650123 0.02433,-0.02433 1.08293,0.370973 2.352446,0.878451 2.764632,1.105135 13.025064,5.176872 22.74571,9.026378 1.821875,0.721487 5.225,2.071469 7.5625,2.99996 8.681024,3.44824 12.208902,4.846484 15.437499,6.118519 1.821875,0.7178 3.487313,1.382516 3.700976,1.477147 0.213661,0.09463 1.563661,0.632144 3,1.19447 1.436337,0.562328 2.627742,1.037958 2.647563,1.056955 0.01982,0.019 -0.402052,0.28517 -0.937499,0.591494 -0.535447,0.306322 -2.857915,1.672516 -5.16104,3.035986 -2.303125,1.363469 -4.6375,2.742944 -5.1875,3.065497 -5.605144,3.287207 -5.650075,3.320128 -6.009887,4.403419 -0.2392,0.720166 -0.183844,1.597382 0.141656,2.244762 0.114202,0.227134 4.673461,4.886351 10.131686,10.353819 9.395961,9.411869 9.924044,9.964321 9.924044,10.381964 0,0.547055 -0.28564,0.943806 -1.619077,2.24888 -1.217926,1.19202 -1.576111,1.375341 -2.193422,1.122605 z M 65.169368,44.384373 c 0.428307,-0.221486 0.643315,-0.676264 0.642508,-1.359006 -0.0011,-0.920728 -0.237128,-1.08197 -3.436879,-2.347799 -1.58125,-0.625545 -4.3375,-1.718146 -6.125,-2.428002 -1.787499,-0.709856 -5.190624,-2.056745 -7.562499,-2.993085 -2.371875,-0.93634 -4.441709,-1.756785 -4.599631,-1.82321 -0.157923,-0.06642 -0.536723,-0.120772 -0.841779,-0.120772 -0.814302,0 -1.319532,0.481953 -1.401704,1.337128 -0.09418,0.980155 0.300022,1.307734 2.718114,2.25873 4.276806,1.682 10.793801,4.26962 14.874999,5.906226 4.494238,1.802239 5.009485,1.94335 5.731871,1.56979 z M 38.322442,33.724241 c 0.481915,-0.284674 0.787276,-0.947334 0.695931,-1.510229 -0.100545,-0.619584 -0.589472,-1.070896 -1.558962,-1.439022 -0.458928,-0.17426 -1.563968,-0.602734 -2.455646,-0.952164 -0.912415,-0.357556 -1.823629,-0.635327 -2.084159,-0.635327 -0.925898,0 -1.654369,1.036788 -1.358458,1.933409 0.141718,0.429407 0.759717,1.063716 1.042191,1.069695 0.08066,0.0017 1.102909,0.391782 2.271659,0.866831 2.253745,0.916057 2.835132,1.028508 3.447444,0.666807 z"
       id="path8563"
       transform="scale(0.26458333)" /></g></svg>
