<?xml version="1.0" encoding="UTF-8" standalone="no"?>
<!-- Created with Inkscape (http://www.inkscape.org/) -->

<svg
   width="25mm"
   height="35mm"
   viewBox="0 0 25 35"
   version="1.1"
   id="svg5"
   xml:space="preserve"
   inkscape:export-filename="mouse.png"
   inkscape:export-xdpi="96"
   inkscape:export-ydpi="96"
   inkscape:version="1.2.2 (732a01da63, 2022-12-09)"
   sodipodi:docname="mouseleft.svg"
   xmlns:inkscape="http://www.inkscape.org/namespaces/inkscape"
   xmlns:sodipodi="http://sodipodi.sourceforge.net/DTD/sodipodi-0.dtd"
   xmlns="http://www.w3.org/2000/svg"
   xmlns:svg="http://www.w3.org/2000/svg"><sodipodi:namedview
     id="namedview7"
     pagecolor="#ffffff"
     bordercolor="#666666"
     borderopacity="1.0"
     inkscape:showpageshadow="2"
     inkscape:pageopacity="0.0"
     inkscape:pagecheckerboard="0"
     inkscape:deskcolor="#d1d1d1"
     inkscape:document-units="mm"
     showgrid="false"
     inkscape:zoom="5.6568545"
     inkscape:cx="48.701977"
     inkscape:cy="46.40388"
     inkscape:window-width="1920"
     inkscape:window-height="1001"
     inkscape:window-x="-9"
     inkscape:window-y="-9"
     inkscape:window-maximized="1"
     inkscape:current-layer="layer1" /><defs
     id="defs2" /><g
     inkscape:label="Calque 1"
     inkscape:groupmode="layer"
     id="layer1"><path
       style="display:inline;fill:#000000;stroke-width:0.167141"
       d="M 23.142034,14.06929 C 23.154076,13.550263 23.26587,8.7352128 22.755013,6.7328988 22.357322,5.3925159 21.814682,4.4151391 20.908794,3.4075723 19.379041,1.7061219 17.470628,0.81624134 14.933241,0.62119594 c -1.087619,-0.083603 -1.562495,-0.071443 -2.053915,-0.061493 -0.0038,0.2291046 -0.01875,0.89940756 -0.01106,1.51388886 0.0069,0.6211774 -0.0036,0.8840549 8e-4,0.986197 0.09792,-0.00316 0.380132,0.070436 0.635129,0.1876787 0.280962,0.1797359 0.408256,0.2261914 0.724166,0.6473269 0.320403,0.4569893 0.287043,0.9113708 0.287043,4.2480425 0,3.3366721 -0.03338,3.6040141 -0.447929,4.1063961 -0.378898,0.459174 -0.716479,0.571906 -0.868092,0.646894 -0.151611,0.075 -0.222385,0.08443 -0.327301,0.123046 -0.0024,0.128514 -0.0073,0.370721 -0.0043,0.564572 l 0.0059,0.478554 4.975252,-0.003"
       id="path2574" /><path
       style="display:inline;fill:#ff0000;fill-opacity:1;stroke-width:0.167141"
       d="m 1.8147031,14.049526 c -0.01204,-0.519028 -0.123835,-5.3340782 0.387022,-7.3363922 0.397691,-1.3403826 0.94033,-2.3177594 1.846219,-3.3253262 1.529753,-1.7014504 3.438166,-2.59133096 5.9755529,-2.78637636 1.087618,-0.083603 1.562495,-0.071443 2.053915,-0.061493 0.0038,0.2291046 0.01875,0.89940756 0.01105,1.51388876 -0.0069,0.6211774 0.0036,0.884055 -8e-4,0.9861971 -0.09792,-0.00316 -0.206499,0.020827 -0.39535,0.08846 -0.223085,0.1135899 -0.548816,0.2923371 -0.864726,0.7134727 -0.320403,0.4569892 -0.277356,0.9210576 -0.277356,4.25773 0,3.3366712 -0.07553,3.6273992 0.339023,4.1297812 0.378897,0.459175 0.716479,0.571906 0.868092,0.646894 0.151611,0.075 0.222385,0.08443 0.327301,0.123046 0.0024,0.128514 0.0073,0.370721 0.0043,0.564572 l 0.0022,0.486715 -4.9834139,-0.01125"
       id="path2572" /><path
       style="display:inline;fill:#000000;stroke-width:0.167141"
       d="M 9.1073234,34.400326 C 5.9839243,33.559988 3.5709141,31.211944 2.3310369,27.988698 1.899863,26.867792 1.8972947,26.831944 1.8390468,21.121782 c -0.053557,-5.251199 -0.042147,-5.954985 -0.03127,-6.377139 0.616404,0.0156 0.9269048,-4.4e-4 10.6933782,-4.4e-4 9.614861,0 9.722882,-0.0016 10.642948,-4.88e-4 0.0028,0.397764 -0.02347,1.240908 -0.02347,5.90719 0,5.901425 -0.12804,6.843168 -1.207666,8.882725 -1.166604,2.203859 -3.759416,4.220302 -6.254223,4.863943 -1.332992,0.343898 -5.277283,0.345555 -6.5514226,0.0028 z"
       id="path416" /><path
       id="rect524"
       style="display:inline;fill:#000000;fill-opacity:1;fill-rule:evenodd;stroke-width:1.06586"
       d="m 12.448115,3.2014897 c 0.952294,0 1.718941,0.7666472 1.718941,1.718941 v 6.1277033 c 0,0.952294 -0.766647,1.718941 -1.718941,1.718941 -0.952292,0 -1.718939,-0.766647 -1.718939,-1.718941 V 4.9204307 c 0,-0.9522938 0.766647,-1.718941 1.718939,-1.718941 z" /></g></svg>
