<?xml version="1.0" encoding="UTF-8" standalone="no"?>
<!-- Created with Inkscape (http://www.inkscape.org/) -->

<svg
   width="25mm"
   height="25mm"
   viewBox="0 0 25 25"
   version="1.1"
   id="svg5"
   xml:space="preserve"
   inkscape:export-filename="mouse.png"
   inkscape:export-xdpi="96"
   inkscape:export-ydpi="96"
   inkscape:version="1.2.2 (732a01da63, 2022-12-09)"
   sodipodi:docname="right_pointer.svg"
   xmlns:inkscape="http://www.inkscape.org/namespaces/inkscape"
   xmlns:sodipodi="http://sodipodi.sourceforge.net/DTD/sodipodi-0.dtd"
   xmlns="http://www.w3.org/2000/svg"
   xmlns:svg="http://www.w3.org/2000/svg"><sodipodi:namedview
     id="namedview7"
     pagecolor="#ffffff"
     bordercolor="#666666"
     borderopacity="1.0"
     inkscape:showpageshadow="2"
     inkscape:pageopacity="0.0"
     inkscape:pagecheckerboard="0"
     inkscape:deskcolor="#d1d1d1"
     inkscape:document-units="mm"
     showgrid="false"
     inkscape:zoom="5.6568545"
     inkscape:cx="13.435028"
     inkscape:cy="56.656928"
     inkscape:window-width="1920"
     inkscape:window-height="1001"
     inkscape:window-x="-9"
     inkscape:window-y="-9"
     inkscape:window-maximized="1"
     inkscape:current-layer="layer1" /><defs
     id="defs2" /><g
     inkscape:label="Calque 1"
     inkscape:groupmode="layer"
     id="layer1"><path
       style="display:inline;fill:#000000;stroke-width:0.0151476"
       d="m 3.7986805,22.377609 c 0.136335,-0.03718 0.231065,-0.07852 0.338188,-0.147598 0.05604,-0.03614 0.982337,-0.95097 2.661728,-2.628783 l 2.575784,-2.573361 1.2866025,2.178098 c 1.389857,2.352896 1.3627,2.31067 1.550399,2.410712 0.353926,0.188641 0.787809,0.07873 1.000072,-0.253338 0.02467,-0.03859 1.351348,-3.36249 2.948181,-7.386449 3.567286,-8.9894213 3.233695,-8.1416323 3.25192,-8.2644258 0.05296,-0.3568363 -0.199697,-0.7306446 -0.556696,-0.8236312 -0.115464,-0.030074 -0.283005,-0.029602 -0.386352,0.00109 -0.04502,0.013369 -0.347883,0.129912 -0.67303,0.2589836 -0.325147,0.1290716 -0.768403,0.3049126 -0.985014,0.3907576 -0.772557,0.3061727 -1.522479,0.6037394 -3.1507,1.2501883 -2.158709,0.8570676 -2.406671,0.9555045 -3.7944715,1.5063409 -1.916351,0.7606247 -2.333271,0.9260529 -2.787157,1.1059024 -3.001656,1.1893892 -4.051022,1.6085522 -4.124406,1.6474662 -0.106586,0.05652 -0.250272,0.206144 -0.304597,0.31718 -0.146227,0.298876 -0.08591,0.645546 0.152856,0.878511 0.0468,0.04566 0.23185,0.164908 0.519544,0.334792 1.067876,0.630582 3.828468,2.259048 3.866685,2.280949 l 0.04192,0.02402 -2.565778,2.567883 c -1.411177,1.412336 -2.587809,2.600775 -2.614735,2.640975 -0.237786,0.355014 -0.262405,0.796699 -0.06589,1.182115 0.06733,0.132048 0.08826,0.156113 0.458028,0.526523 0.42233,0.423069 0.496669,0.480032 0.724082,0.554831 0.162931,0.05359 0.474091,0.06356 0.632838,0.02027 z m -0.428406,-0.751741 c -0.0762,-0.0315 -0.692917,-0.643919 -0.731624,-0.726528 -0.03529,-0.07532 -0.03816,-0.228913 -0.0057,-0.307225 0.01658,-0.04004 0.773218,-0.807153 2.617894,-2.654129 2.804166,-2.807665 2.655483,-2.650317 2.71299,-2.871098 0.07506,-0.288187 -0.04777,-0.621254 -0.291443,-0.790288 -0.04773,-0.03311 -0.853621,-0.512199 -1.790879,-1.064651 -2.303655,-1.357852 -2.520099,-1.485894 -2.534633,-1.499421 -0.0069,-0.0064 0.211218,-0.100667 0.484723,-0.20942 1.324496,-0.526669 3.833195,-1.5223605 5.094538,-2.0220141 0.220777,-0.087456 0.619537,-0.2456146 0.886135,-0.3514643 C 10.078872,9.02378 10.671901,8.7885588 11.130115,8.606916 11.58833,8.4252733 12.280196,8.1505908 12.667596,7.9965104 c 0.594552,-0.2364709 2.189908,-0.8694102 5.036575,-1.9982039 0.316585,-0.1255358 0.657406,-0.2611554 0.75738,-0.3013768 0.09997,-0.040221 0.183524,-0.068052 0.185667,-0.061845 0.0021,0.00621 -0.347647,0.8972716 -0.777311,1.9801442 -0.429663,1.0828727 -1.79386,4.5216081 -3.031548,7.6416331 -1.237689,3.120026 -2.254591,5.677176 -2.259783,5.682556 -0.0052,0.0054 -0.588835,-0.972088 -1.296985,-2.172154 -1.4193685,-2.405334 -1.3538195,-2.304669 -1.5701165,-2.411258 -0.222179,-0.109488 -0.450478,-0.109153 -0.6793,10e-4 -0.111218,0.05354 -0.168234,0.109261 -2.71142,2.650084 -1.703463,1.70188 -2.616063,2.603225 -2.650828,2.618137 -0.06933,0.02974 -0.228441,0.03008 -0.299652,6.51e-4 z m 3.988091,-9.858742 c 0.03332,-0.01138 0.36392,-0.141477 0.734658,-0.289104 0.923622,-0.367786 1.526369,-0.607272 3.3220135,-1.319914 0.848194,-0.3366252 1.561202,-0.6218867 1.584461,-0.6339147 0.05417,-0.02801 0.135508,-0.120567 0.16229,-0.1846651 0.02751,-0.065847 0.02653,-0.2152386 -0.0019,-0.2831918 -0.05938,-0.1421194 -0.187011,-0.2278402 -0.340853,-0.2289301 -0.09374,-6.635e-4 -0.143147,0.017038 -1.030036,0.3690275 -0.512368,0.2033488 -1.786381,0.7089187 -2.8311405,1.1234892 -1.044759,0.41457 -1.91726,0.766883 -1.938891,0.782919 -0.05861,0.04345 -0.119296,0.138249 -0.140453,0.219402 -0.06999,0.268449 0.217068,0.534605 0.479814,0.444882 z M 14.432291,8.9569328 c 0.07883,-0.020843 1.270077,-0.4996083 1.321169,-0.5309804 0.07053,-0.043311 0.136399,-0.1423656 0.155344,-0.2336268 0.04839,-0.2330971 -0.127081,-0.4486698 -0.365208,-0.4486698 -0.09578,0 -0.08017,-0.00553 -0.876352,0.310498 -0.506157,0.2009089 -0.537785,0.2155813 -0.59298,0.2750841 -0.07125,0.076812 -0.09527,0.1407452 -0.09586,0.2551094 -6.12e-4,0.1194696 0.02483,0.1856169 0.101605,0.2641407 0.08985,0.091897 0.240024,0.1381268 0.352282,0.1084448 z m 6.814295,-0.2071205 c 0.09398,-0.029938 0.207731,-0.1408979 0.233542,-0.2278128 0.02697,-0.090829 0.02243,-0.2156491 -0.01042,-0.2860469 -0.01794,-0.038444 -0.152076,-0.1833172 -0.366996,-0.3963668 -0.324578,-0.3217515 -0.34245,-0.3368479 -0.427892,-0.3614312 -0.228952,-0.065874 -0.453257,0.088122 -0.474826,0.3259886 -0.01491,0.1644553 0.0039,0.1929885 0.37286,0.5655248 0.180103,0.1818488 0.352517,0.3436198 0.383143,0.3594913 0.07824,0.040547 0.200796,0.049257 0.29059,0.020653 z M 22.178208,6.147567 c 0.135255,-0.048946 0.244609,-0.2062183 0.243625,-0.3503769 -0.001,-0.1477796 -0.06943,-0.2623396 -0.199827,-0.3345908 l -0.07959,-0.044099 h -0.484723 c -0.476283,0 -0.485964,6.12e-4 -0.556008,0.035111 -0.196305,0.096689 -0.272794,0.3282012 -0.170517,0.5161162 0.02426,0.044573 0.0651,0.097051 0.09075,0.1166197 0.104592,0.079776 0.122324,0.082045 0.631498,0.080807 0.331572,-8.058e-4 0.489145,-0.00669 0.524789,-0.019587 z M 20.726116,4.0918489 c 0.09987,-0.045223 0.687191,-0.6303151 0.736218,-0.7334213 0.08757,-0.1841711 0.01404,-0.4059818 -0.167263,-0.504539 -0.06699,-0.036414 -0.27069,-0.034735 -0.341741,0.00282 -0.06931,0.036632 -0.685703,0.6532151 -0.719057,0.7192796 -0.03643,0.07215 -0.04636,0.1994343 -0.02231,0.285707 0.02593,0.092969 0.145811,0.2167166 0.235675,0.2432676 0.09188,0.027146 0.20091,0.022012 0.278473,-0.013111 z m -4.074807,-0.00906 c 0.188602,-0.09683 0.263071,-0.317303 0.16885,-0.4998983 C 16.803744,3.551079 16.63807,3.3744892 16.451994,3.1904691 16.151,2.8928014 16.105764,2.8537362 16.041979,2.8363907 c -0.17362,-0.047213 -0.342546,0.016835 -0.430291,0.1631441 -0.06263,0.1044284 -0.075,0.1913411 -0.04305,0.3024223 0.02372,0.082469 0.04155,0.1034431 0.360022,0.4235334 0.184287,0.1852223 0.359244,0.3484876 0.388793,0.3628118 0.02955,0.014324 0.09803,0.028556 0.152187,0.031625 0.0847,0.0048 0.110088,-3.877e-4 0.181667,-0.037138 z m 1.961718,-0.6543826 c 0.10642,-0.027854 0.202941,-0.1073758 0.2596,-0.2138808 0.02584,-0.048574 0.0282,-0.094264 0.0282,-0.5453134 0,-0.4564851 -0.0021,-0.4965979 -0.02934,-0.5514238 -0.06971,-0.1405046 -0.189189,-0.2135296 -0.349353,-0.2135296 -0.0886,0 -0.117777,0.0069 -0.177471,0.041994 -0.08069,0.047431 -0.142133,0.1203388 -0.172033,0.2041239 -0.02908,0.081473 -0.02908,0.9561982 0,1.0376717 0.06087,0.1705699 0.270304,0.2848754 0.44039,0.240358 z"
       id="path558"
       inkscape:label="pointer" /><path
       style="display:inline;fill:#ffffff;fill-opacity:1;fill-rule:evenodd;stroke-width:0.0624999"
       d="m 3.6363895,21.614949 c 0.03638,-0.01489 1.2352497,-1.196556 2.6641544,-2.625914 1.9799528,-1.980582 2.6329894,-2.614703 2.7450521,-2.665539 0.1875914,-0.0851 0.465501,-0.08759 0.643137,-0.0058 0.2270678,0.104593 0.2804593,0.17098 0.667998,0.830579 0.09084,0.154615 0.336905,0.571334 0.546807,0.926041 0.209901,0.354707 0.658075,1.113731 0.995943,1.686719 0.337868,0.572988 0.62698,1.062992 0.642472,1.088897 0.01927,0.03222 0.162035,-0.291681 0.451902,-1.02526 0.233053,-0.589798 0.458212,-1.154216 0.500354,-1.254262 0.04214,-0.100046 0.217449,-0.539089 0.389574,-0.975651 0.172125,-0.436563 0.513899,-1.299766 0.759499,-1.918229 0.605301,-1.524252 1.052514,-2.652796 1.697222,-4.282943 0.298552,-0.754889 0.571134,-1.4394983 0.605739,-1.5213538 0.03461,-0.081855 0.144921,-0.3571875 0.245147,-0.6118489 0.45266,-1.1501509 1.287348,-3.256248 1.348064,-3.4014531 0.03687,-0.088169 0.06176,-0.1655744 0.05533,-0.1720118 -0.0064,-0.00644 -0.286525,0.098153 -0.622418,0.2324235 C 17.240888,6.2117752 14.526149,7.289089 11.954228,8.3076041 11.47219,8.4984975 10.57178,8.8556803 9.9533163,9.1013435 7.6564621,10.01369 6.7230443,10.383642 5.8688114,10.720202 5.3867736,10.91012 4.9461265,11.085992 4.8895948,11.11103 4.8330637,11.136068 4.4758762,11.278285 4.0958449,11.427067 3.715814,11.57585 3.4005881,11.701693 3.3953438,11.70672 c -0.00524,0.005 0.1063763,0.07545 0.2480466,0.156499 0.1416704,0.08105 0.7561567,0.44252 1.3655252,0.803271 0.6093685,0.360752 1.2270052,0.725738 1.372526,0.81108 1.4830277,0.86974 1.4949157,0.87845 1.5901159,1.165071 0.063288,0.190544 0.048642,0.422641 -0.03748,0.593927 -0.030216,0.0601 -1.2365199,1.292847 -2.6806752,2.739448 -2.4860147,2.490223 -2.6257366,2.636393 -2.6257366,2.746894 0,0.144742 0.075576,0.249715 0.4283808,0.595016 0.3222429,0.315389 0.4170126,0.363893 0.580343,0.297023 z m 3.3947706,-9.871584 c -0.1133229,-0.0586 -0.1702104,-0.178928 -0.1699969,-0.35957 2.91e-4,-0.243609 0.06274,-0.286271 0.9093409,-0.621189 0.4183724,-0.165508 1.1476302,-0.454592 1.6205729,-0.642408 0.4729424,-0.1878165 1.373353,-0.5441809 2.000911,-0.7919209 0.627559,-0.2477399 1.175202,-0.464816 1.216986,-0.4823909 0.04178,-0.017574 0.142008,-0.031954 0.222721,-0.031954 0.21545,0 0.349126,0.1275167 0.370867,0.3537818 0.02492,0.2593327 -0.07938,0.3460046 -0.719168,0.5976223 -1.131571,0.4450287 -2.8558594,1.1296697 -3.9356764,1.5626887 -1.1891004,0.476842 -1.3254262,0.514178 -1.5165575,0.41534 z M 14.134409,8.922872 c -0.127506,-0.07532 -0.2083,-0.2506488 -0.184132,-0.3995814 0.0266,-0.1639316 0.155965,-0.2833413 0.412476,-0.3807413 0.121424,-0.046106 0.4138,-0.1594733 0.649723,-0.2519267 0.24141,-0.094603 0.482502,-0.1680969 0.551434,-0.1680969 0.244977,0 0.437718,0.2743168 0.359425,0.5115478 -0.0375,0.1136139 -0.201009,0.2814415 -0.275747,0.2830234 -0.02134,4.498e-4 -0.291811,0.103659 -0.601043,0.2293491 -0.596303,0.2423734 -0.750128,0.272126 -0.912136,0.176426 z"
       id="path8563" /></g></svg>
