<?xml version="1.0" encoding="UTF-8" standalone="no"?>
<!-- Created with Inkscape (http://www.inkscape.org/) -->

<svg
   width="25mm"
   height="25mm"
   viewBox="0 0 25 25"
   version="1.1"
   id="svg5"
   xml:space="preserve"
   inkscape:export-filename="mouse.png"
   inkscape:export-xdpi="96"
   inkscape:export-ydpi="96"
   inkscape:version="1.2.2 (732a01da63, 2022-12-09)"
   sodipodi:docname="votreimage.svg"
   xmlns:inkscape="http://www.inkscape.org/namespaces/inkscape"
   xmlns:sodipodi="http://sodipodi.sourceforge.net/DTD/sodipodi-0.dtd"
   xmlns="http://www.w3.org/2000/svg"
   xmlns:svg="http://www.w3.org/2000/svg"><sodipodi:namedview
     id="namedview7"
     pagecolor="#ffffff"
     bordercolor="#666666"
     borderopacity="1.0"
     inkscape:showpageshadow="2"
     inkscape:pageopacity="0.0"
     inkscape:pagecheckerboard="0"
     inkscape:deskcolor="#d1d1d1"
     inkscape:document-units="mm"
     showgrid="false"
     inkscape:zoom="8.0000004"
     inkscape:cx="19.687499"
     inkscape:cy="47.187498"
     inkscape:window-width="958"
     inkscape:window-height="991"
     inkscape:window-x="952"
     inkscape:window-y="0"
     inkscape:window-maximized="0"
     inkscape:current-layer="layer1" /><defs
     id="defs2" /><g
     inkscape:label="Calque 1"
     inkscape:groupmode="layer"
     id="layer1"><rect
       style="fill:#241c1c;fill-opacity:1;fill-rule:evenodd;stroke-width:0.499999"
       id="rect12958"
       width="23.316404"
       height="23.647133"
       x="0.62838542"
       y="0.59531248"
       ry="0" /><g
       aria-label="image"
       id="text13299"
       style="font-size:5.38175px;line-height:1.25;stroke-width:0.134544;stroke:none;fill:#ffffff;fill-opacity:1"><path
         d="m 5.0740987,4.3709371 q 0.107635,0 0.1883613,0.075344 0.086108,0.069963 0.086108,0.2260335 0,0.1560708 -0.086108,0.2314153 -0.080726,0.069963 -0.1883613,0.069963 -0.1183985,0 -0.1991248,-0.069963 -0.080726,-0.075344 -0.080726,-0.2314153 0,-0.1560707 0.080726,-0.2260335 0.080726,-0.075344 0.1991248,-0.075344 z M 5.305514,5.4526689 v 2.884618 H 4.8319199 v -2.884618 z"
         style="fill:#ffffff;stroke:none;fill-opacity:1"
         id="path13351" /><path
         d="m 9.3848774,5.3988514 q 0.4897393,0 0.7319176,0.2529422 0.242179,0.2529423 0.242179,0.8072626 V 8.3372869 H 9.8907619 V 6.4805832 q 0,-0.6834823 -0.5866107,-0.6834823 -0.4197765,0 -0.602756,0.2421788 -0.1775978,0.2421787 -0.1775978,0.7050092 v 1.592998 H 8.0555851 V 6.4805832 q 0,-0.6834823 -0.5919925,-0.6834823 -0.4359217,0 -0.602756,0.2690875 -0.1668342,0.2690875 -0.1668342,0.774972 v 1.4961265 h -0.473594 v -2.884618 h 0.3821042 l 0.069963,0.3928677 h 0.026909 Q 6.8339279,5.6195031 7.0599614,5.5118681 7.2913766,5.3988514 7.5497006,5.3988514 q 0.6781005,0 0.8826071,0.4843575 h 0.026909 Q 8.6045237,5.6356484 8.8520842,5.5172499 9.0996447,5.3988514 9.3848774,5.3988514 Z"
         style="fill:#ffffff;stroke:none;fill-opacity:1"
         id="path13353" /><path
         d="m 12.344837,5.4042331 q 0.527411,0 0.780354,0.2314153 0.252942,0.2314153 0.252942,0.7372998 v 1.9643387 h -0.344432 l -0.09149,-0.409013 h -0.02153 q -0.188361,0.236797 -0.398249,0.3498138 -0.209889,0.1130168 -0.570466,0.1130168 -0.392868,0 -0.651192,-0.2045066 -0.258324,-0.2098882 -0.258324,-0.6511917 0,-0.43054 0.339051,-0.6619553 0.33905,-0.236797 1.044059,-0.258324 l 0.489739,-0.016145 v -0.172216 q 0,-0.3605773 -0.15607,-0.5005028 -0.156071,-0.1399255 -0.441304,-0.1399255 -0.226033,0 -0.43054,0.069963 -0.204506,0.064581 -0.382104,0.1506891 L 11.359977,5.6517936 q 0.188361,-0.1022532 0.446685,-0.172216 0.258324,-0.075344 0.538175,-0.075344 z m 0.565084,1.5230353 -0.425159,0.016145 q -0.538175,0.021527 -0.748063,0.172216 -0.204506,0.150689 -0.204506,0.4251582 0,0.2421788 0.145307,0.3551955 0.150689,0.1130168 0.382104,0.1130168 0.360577,0 0.602756,-0.1991248 0.247561,-0.2045065 0.247561,-0.624283 z"
         style="fill:#ffffff;stroke:none;fill-opacity:1"
         id="path13355" /><path
         d="m 15.29404,5.3988514 q 0.285233,0 0.511266,0.107635 0.231416,0.107635 0.392868,0.3282867 h 0.02691 l 0.06458,-0.3821042 h 0.376722 v 2.9330538 q 0,0.6189013 -0.317523,0.9310428 -0.312141,0.3121415 -0.974097,0.3121415 -0.635046,0 -1.038677,-0.1829795 V 9.0100057 q 0.425158,0.2260335 1.065586,0.2260335 0.371341,0 0.581229,-0.2206517 0.21527,-0.21527 0.21527,-0.5919925 V 8.3103782 q 0,-0.064581 0.0054,-0.1829795 0.0054,-0.1237803 0.01076,-0.172216 h -0.02153 q -0.290614,0.4359218 -0.89337,0.4359218 -0.559702,0 -0.877225,-0.3928678 -0.312142,-0.3928678 -0.312142,-1.097877 0,-0.688864 0.312142,-1.0924953 0.317523,-0.409013 0.871843,-0.409013 z m 0.06458,0.3982495 q -0.360577,0 -0.559702,0.2906145 -0.199125,0.2852328 -0.199125,0.818026 0,0.5327933 0.193743,0.818026 0.193743,0.279851 0.575848,0.279851 0.435921,0 0.635046,-0.2314152 0.199125,-0.236797 0.199125,-0.7588268 V 6.9003597 q 0,-0.5866108 -0.204507,-0.8449348 -0.204506,-0.258324 -0.640428,-0.258324 z"
         style="fill:#ffffff;stroke:none;fill-opacity:1"
         id="path13357" /><path
         d="m 18.695305,5.3988514 q 0.365959,0 0.635047,0.1614525 0.269087,0.1614525 0.409013,0.4574488 0.145307,0.2906145 0.145307,0.6834822 V 6.9864677 H 17.90957 q 0.01076,0.4897392 0.24756,0.7480632 0.242179,0.2529423 0.672719,0.2529423 0.274469,0 0.484357,-0.048436 0.21527,-0.053818 0.441304,-0.150689 v 0.4143948 q -0.220652,0.096871 -0.435922,0.1399255 -0.21527,0.048436 -0.511266,0.048436 -0.414395,0 -0.726536,-0.1668343 -0.312142,-0.1668343 -0.48974,-0.495121 -0.172216,-0.3282868 -0.172216,-0.8126443 0,-0.473594 0.156071,-0.8126442 0.161453,-0.3390503 0.446685,-0.5220298 0.290615,-0.1829795 0.672719,-0.1829795 z m -0.0054,0.387486 q -0.33905,0 -0.538175,0.2206518 -0.193743,0.21527 -0.231415,0.602756 h 1.469218 Q 19.384169,6.2437862 19.217335,6.0177527 19.050501,5.7863374 18.689923,5.7863374 Z"
         style="fill:#ffffff;stroke:none;fill-opacity:1"
         id="path13359" /></g></g></svg>
